<?xml version="1.0" standalone="no"?>
<!DOCTYPE svg PUBLIC "-//W3C//DTD SVG 20010904//EN"
 "http://www.w3.org/TR/2001/REC-SVG-20010904/DTD/svg10.dtd">
<svg version="1.0" xmlns="http://www.w3.org/2000/svg"
 width="800.000000pt" height="800.000000pt" viewBox="0 0 800.000000 800.000000"
 preserveAspectRatio="xMidYMid meet">

<g transform="translate(0.000000,800.000000) scale(0.100000,-0.100000)"
fill="#000000" stroke="none">
<path d="M3460 7489 c-19 -4 -100 -20 -180 -35 -80 -14 -163 -33 -185 -40 -22
-8 -46 -14 -54 -14 -15 0 -170 -45 -206 -60 -11 -4 -76 -29 -145 -55 -161 -61
-362 -152 -368 -167 -2 -5 -8 -8 -13 -8 -9 0 -205 -112 -263 -150 -91 -60
-270 -190 -313 -226 -12 -11 -32 -28 -45 -38 -110 -90 -283 -261 -414 -407
-57 -64 -284 -371 -284 -384 0 -3 -18 -31 -39 -63 -45 -66 -81 -131 -161 -292
-328 -657 -439 -1452 -304 -2175 16 -83 57 -261 89 -380 63 -237 248 -649 376
-837 21 -32 39 -60 39 -62 0 -9 166 -246 179 -256 4 -3 22 -25 41 -50 19 -25
37 -47 40 -50 3 -3 20 -23 39 -45 76 -90 276 -289 366 -365 79 -66 188 -151
265 -206 88 -63 227 -154 235 -154 3 0 33 -17 68 -39 54 -33 206 -109 327
-164 186 -84 427 -159 730 -227 344 -77 1021 -77 1350 0 25 6 83 20 130 31 47
11 103 24 125 29 75 16 312 99 445 155 75 31 276 131 335 165 22 13 59 34 82
46 42 23 184 114 193 124 3 3 34 25 70 49 57 40 152 113 245 191 57 48 341
335 381 385 21 28 44 55 50 60 6 6 24 28 40 50 16 22 31 42 34 45 28 26 185
265 257 390 67 118 173 334 173 353 0 7 4 17 9 23 11 11 48 107 94 244 65 192
91 295 132 525 7 44 16 97 20 118 l6 37 -898 0 -898 0 -18 -63 c-10 -34 -25
-77 -33 -95 -8 -18 -14 -37 -14 -42 0 -5 -24 -60 -54 -122 -116 -241 -281
-447 -496 -621 -144 -116 -281 -194 -475 -270 -282 -110 -656 -137 -975 -71
-75 16 -195 52 -260 77 -19 8 -50 20 -69 27 -122 47 -300 156 -426 262 -238
201 -404 427 -517 708 -88 219 -123 405 -123 650 0 235 39 447 120 645 24 59
108 229 116 235 3 3 9 15 13 28 4 12 12 22 17 22 5 0 9 5 9 11 0 20 140 198
218 277 222 226 450 365 760 463 l62 20 0 899 c0 495 -3 899 -7 899 -5 -1 -24
-5 -43 -10z"/>
<path d="M4400 6601 l0 -900 63 -20 c34 -11 87 -29 117 -41 30 -12 68 -26 84
-32 29 -11 106 -51 163 -84 90 -54 129 -79 141 -91 7 -7 17 -13 20 -13 4 0 18
-10 32 -23 14 -12 39 -33 55 -45 103 -79 248 -242 348 -391 52 -76 167 -299
167 -321 0 -5 6 -24 14 -42 8 -18 23 -61 33 -95 l18 -63 898 0 899 0 -5 28
c-3 15 -13 72 -22 127 -25 147 -81 373 -127 510 -48 145 -87 247 -99 260 -5 5
-9 15 -9 22 0 19 -106 237 -173 353 -90 157 -283 439 -332 485 -6 6 -29 33
-50 60 -53 67 -293 308 -380 381 -38 32 -77 65 -85 73 -25 24 -246 184 -305
221 -83 52 -256 150 -265 150 -5 0 -10 5 -10 10 0 6 -4 10 -9 10 -5 0 -65 26
-132 59 -68 32 -176 77 -239 101 -63 23 -122 45 -130 50 -9 4 -31 11 -50 15
-19 4 -41 11 -50 16 -32 18 -353 90 -480 108 -36 5 -73 12 -82 16 -17 7 -18
-40 -18 -894z"/>
</g>
</svg>
