<?xml version="1.0" standalone="no"?>
<!DOCTYPE svg PUBLIC "-//W3C//DTD SVG 20010904//EN"
 "http://www.w3.org/TR/2001/REC-SVG-20010904/DTD/svg10.dtd">
<svg version="1.0" xmlns="http://www.w3.org/2000/svg"
 width="800.000000pt" height="800.000000pt" viewBox="0 0 800.000000 800.000000"
 preserveAspectRatio="xMidYMid meet">

<g transform="translate(0.000000,800.000000) scale(0.100000,-0.100000)"
fill="#000000" stroke="none">
<path d="M3935 7786 c-22 -12 -85 -46 -140 -75 -55 -30 -104 -57 -110 -61 -5
-4 -46 -26 -90 -50 -44 -24 -127 -69 -185 -100 -58 -31 -130 -71 -160 -87 -66
-36 -166 -90 -274 -150 -43 -24 -82 -43 -86 -43 -5 0 -10 -3 -12 -7 -1 -5 -29
-21 -60 -37 -32 -16 -58 -33 -58 -37 0 -8 34 -30 133 -83 37 -20 97 -52 135
-72 37 -20 81 -44 97 -54 31 -18 100 -55 240 -130 44 -24 85 -46 90 -50 6 -4
39 -23 75 -42 157 -85 232 -125 339 -185 63 -34 118 -63 123 -63 8 0 49 21
163 85 42 24 124 68 240 130 39 21 84 45 100 55 17 10 66 37 110 60 44 24 118
64 165 90 47 26 114 63 150 82 36 19 85 46 110 60 25 14 80 44 123 68 65 35
76 45 65 55 -12 12 -45 30 -228 128 -41 22 -88 47 -105 57 -16 10 -59 33 -95
53 -36 19 -112 60 -170 92 -58 32 -134 74 -170 93 -36 20 -150 82 -254 139
-104 57 -196 103 -205 103 -9 -1 -34 -11 -56 -24z"/>
<path d="M2642 6799 l3 -160 75 -40 c41 -22 98 -53 125 -68 28 -16 86 -48 130
-71 44 -23 94 -50 110 -60 17 -10 62 -34 100 -55 289 -156 335 -182 356 -208
17 -20 18 -41 19 -229 0 -164 3 -208 13 -208 7 0 17 4 23 9 9 8 53 33 164 93
30 17 72 39 93 51 l37 21 0 207 0 207 -132 72 c-73 40 -162 88 -198 108 -36
19 -108 58 -160 87 -127 70 -193 106 -265 145 -78 42 -147 80 -329 179 -81 44
-152 81 -157 81 -6 0 -8 -68 -7 -161z"/>
<path d="M5315 6951 c-6 -4 -59 -34 -120 -66 -60 -31 -148 -79 -195 -104 -47
-26 -116 -64 -153 -85 -37 -20 -82 -45 -100 -55 -18 -10 -72 -39 -122 -66 -49
-26 -94 -51 -100 -55 -5 -4 -59 -34 -120 -66 -60 -32 -155 -83 -210 -113
l-100 -56 -3 -205 -2 -206 52 -28 c29 -16 101 -55 159 -87 58 -33 109 -59 112
-59 4 0 7 92 7 205 l0 205 38 38 c21 20 76 56 123 80 46 23 107 55 134 70 28
16 86 48 130 72 44 23 114 61 155 84 42 23 137 75 213 116 l137 74 0 158 c0
123 -3 158 -13 158 -7 0 -17 -4 -22 -9z"/>
<path d="M1950 6728 c-30 -17 -89 -49 -130 -71 -41 -22 -109 -59 -150 -82 -41
-23 -111 -61 -155 -85 -44 -23 -123 -66 -175 -95 -158 -87 -191 -105 -275
-150 -230 -124 -280 -154 -280 -165 0 -11 310 -185 715 -402 52 -28 112 -62
132 -75 21 -12 40 -23 42 -23 3 0 80 -41 171 -91 l165 -91 62 35 c94 52 164
90 253 137 44 23 85 46 90 50 6 4 44 25 85 47 41 22 122 66 180 98 58 32 141
77 185 101 265 142 370 203 370 214 0 12 -64 49 -265 157 -52 27 -111 59 -130
70 -19 11 -91 50 -160 88 -176 95 -229 124 -275 150 -42 24 -129 71 -255 138
-41 22 -88 49 -105 59 -16 10 -32 18 -35 18 -3 -1 -30 -15 -60 -32z"/>
<path d="M5955 6751 c-6 -5 -41 -25 -80 -46 -102 -55 -188 -101 -295 -160 -52
-29 -117 -65 -145 -80 -27 -15 -93 -50 -145 -78 -52 -27 -99 -53 -105 -57 -5
-4 -46 -27 -90 -50 -44 -24 -125 -68 -180 -98 -55 -31 -117 -64 -137 -74 -21
-10 -38 -22 -38 -27 0 -7 361 -209 565 -316 79 -42 171 -92 330 -180 72 -40
171 -94 220 -120 50 -26 96 -53 103 -58 9 -7 24 -4 50 10 51 28 134 73 212
115 177 96 416 226 505 277 55 31 104 58 110 60 5 2 48 25 95 51 148 82 204
113 243 132 20 10 37 23 37 28 0 5 -21 20 -47 33 -27 13 -158 85 -293 159
-135 74 -285 156 -335 183 -49 26 -124 67 -165 90 -73 41 -119 66 -285 155
-44 24 -84 47 -89 51 -13 11 -29 11 -41 0z"/>
<path d="M657 5893 c-4 -3 -7 -363 -7 -799 l0 -793 22 -21 c12 -11 25 -20 29
-20 4 0 83 -41 176 -92 92 -50 197 -107 233 -126 36 -19 83 -44 105 -57 38
-21 92 -50 245 -133 36 -19 70 -38 75 -42 6 -4 51 -29 100 -55 50 -26 129 -70
178 -97 48 -26 89 -48 92 -48 3 0 4 365 3 811 l-3 811 -100 55 c-55 30 -134
73 -175 95 -41 22 -127 69 -191 104 -64 35 -122 64 -128 64 -6 0 -11 4 -11 9
0 5 -10 13 -22 16 -11 4 -44 21 -72 37 -28 17 -87 50 -131 73 -178 94 -240
128 -250 135 -19 14 -146 80 -154 80 -4 0 -11 -3 -14 -7z"/>
<path d="M3275 5863 c-33 -19 -107 -60 -165 -91 -58 -30 -122 -66 -142 -79
-21 -13 -40 -23 -42 -23 -3 0 -70 -35 -148 -78 -79 -43 -179 -98 -223 -122
-44 -23 -102 -55 -130 -70 -95 -52 -170 -93 -240 -131 l-70 -38 -3 -810 c-1
-446 1 -811 4 -811 8 0 258 134 307 164 16 10 17 52 17 639 0 713 -6 665 84
713 28 15 65 36 83 45 18 10 63 35 100 55 86 46 188 102 233 127 19 11 69 38
110 60 81 43 239 129 280 152 25 14 25 15 28 174 2 126 0 161 -10 160 -7 0
-40 -17 -73 -36z"/>
<path d="M4620 5742 l0 -157 73 -39 c184 -98 223 -119 232 -126 6 -4 46 -26
90 -50 44 -24 127 -69 185 -100 58 -31 141 -76 185 -100 44 -24 93 -52 109
-63 57 -40 56 -31 56 -706 l0 -619 63 -35 c163 -90 254 -136 260 -130 4 3 7
365 7 803 0 747 -1 798 -17 812 -16 13 -149 87 -343 191 -41 22 -88 47 -105
57 -16 10 -61 34 -100 55 -38 21 -92 50 -120 65 -130 71 -277 151 -340 185
-38 21 -101 55 -138 77 -38 21 -75 38 -83 38 -11 0 -14 -29 -14 -158z"/>
<path d="M7290 5890 c-27 -18 -401 -220 -405 -220 -2 0 -28 -14 -57 -31 -29
-17 -89 -51 -133 -74 -44 -23 -127 -68 -185 -100 -142 -78 -187 -103 -310
-169 -58 -32 -111 -65 -117 -74 -10 -12 -13 -188 -13 -801 0 -432 4 -791 8
-798 6 -10 13 -9 32 1 28 14 119 64 260 141 52 29 124 68 160 88 36 19 137 74
225 123 88 48 198 107 245 132 47 25 116 62 153 84 38 21 71 38 73 38 2 0 26
14 54 31 l50 31 0 804 c0 839 1 819 -40 794z"/>
<path d="M3965 5691 c-6 -5 -57 -35 -115 -66 -58 -32 -127 -70 -155 -85 -27
-15 -180 -98 -340 -185 -159 -87 -315 -171 -345 -188 -30 -17 -98 -54 -150
-82 -52 -29 -95 -56 -97 -62 -2 -5 14 -18 34 -29 35 -19 68 -37 208 -114 28
-15 79 -43 115 -62 36 -20 85 -47 110 -60 25 -14 149 -82 275 -150 127 -69
250 -137 275 -150 204 -114 219 -119 255 -95 11 8 65 38 120 67 55 29 129 70
165 90 63 36 147 82 300 163 41 22 80 43 85 47 6 5 39 24 75 42 139 74 246
131 265 143 11 7 52 29 90 50 84 46 98 56 88 65 -4 4 -38 24 -75 44 -141 75
-197 106 -351 190 -87 47 -162 86 -167 86 -4 0 -10 3 -12 8 -1 4 -19 15 -38
26 -19 10 -78 41 -130 69 -52 27 -99 53 -105 57 -5 5 -50 29 -100 55 -49 26
-94 51 -100 55 -26 19 -146 80 -158 80 -7 0 -17 -4 -22 -9z"/>
<path d="M2642 4039 l3 -810 75 -40 c41 -22 89 -49 105 -59 17 -10 71 -39 120
-65 50 -26 115 -61 145 -78 30 -17 75 -41 100 -55 25 -13 88 -48 140 -77 52
-29 124 -68 160 -87 78 -43 120 -66 266 -147 61 -33 116 -61 122 -61 18 0 17
1604 0 1617 -7 6 -47 28 -88 49 -41 22 -77 41 -80 44 -5 5 -19 13 -145 80 -44
24 -94 51 -112 61 -18 10 -61 34 -95 52 -168 92 -408 222 -448 245 -25 13 -83
45 -130 70 -47 24 -89 48 -95 52 -5 4 -18 10 -28 13 -16 6 -17 -35 -15 -804z"/>
<path d="M5314 4836 c-10 -7 -68 -39 -129 -71 -60 -32 -114 -61 -120 -65 -9
-6 -65 -37 -235 -128 -36 -19 -78 -42 -95 -52 -16 -10 -66 -37 -110 -60 -44
-24 -127 -69 -185 -100 -58 -31 -136 -74 -175 -95 -38 -21 -94 -51 -122 -67
l-53 -30 0 -804 c0 -768 1 -804 18 -804 10 0 22 4 27 9 6 4 55 32 110 61 126
68 174 93 238 129 111 61 275 150 342 186 67 36 217 118 335 182 30 17 85 47
123 67 l67 38 0 803 c0 442 -4 806 -8 809 -5 3 -17 -1 -28 -8z"/>
<path d="M905 3780 c-66 -38 -120 -73 -120 -80 0 -6 27 -26 60 -44 33 -18 179
-98 325 -178 146 -80 301 -164 345 -188 44 -24 111 -60 148 -82 38 -21 70 -38
71 -38 1 0 62 -33 135 -74 81 -45 140 -72 150 -69 9 4 51 26 95 51 43 24 111
61 150 82 39 20 94 51 121 67 l50 29 3 147 c1 81 -1 147 -6 147 -5 0 -92 -45
-193 -101 -101 -55 -198 -103 -216 -106 -35 -6 -50 1 -238 104 -60 33 -146 79
-190 103 -44 23 -93 50 -110 60 -29 17 -89 50 -230 125 -38 21 -101 55 -138
76 -38 22 -74 39 -80 38 -7 -1 -66 -32 -132 -69z"/>
<path d="M6885 3821 c-27 -15 -81 -45 -120 -66 -38 -21 -117 -63 -175 -95 -58
-32 -136 -74 -175 -95 -38 -21 -83 -45 -100 -55 -16 -10 -73 -40 -126 -68 -53
-28 -116 -63 -140 -77 -24 -13 -57 -25 -73 -25 -18 0 -101 39 -222 105 -106
58 -195 105 -198 105 -3 0 -6 -67 -6 -149 l0 -149 88 -48 c48 -26 101 -55 117
-64 17 -9 73 -40 125 -68 l95 -51 60 32 c33 18 105 57 160 86 55 30 129 71
165 91 36 20 110 61 165 90 55 29 105 56 110 60 6 4 55 31 110 60 55 29 170
92 255 139 85 47 168 92 183 100 15 8 27 18 27 22 0 9 -256 150 -270 148 -3 0
-27 -13 -55 -28z"/>
<path d="M656 3514 c-9 -23 -7 -1587 2 -1600 4 -6 48 -32 97 -59 50 -26 95
-51 100 -55 6 -4 64 -35 130 -70 66 -35 125 -66 130 -70 6 -4 42 -24 80 -45
73 -39 158 -86 210 -115 17 -9 66 -36 110 -60 44 -23 94 -50 110 -60 17 -10
62 -34 100 -55 39 -21 93 -51 122 -66 29 -16 54 -29 58 -29 3 0 4 365 3 811
l-3 811 -220 120 c-281 153 -318 173 -445 243 -58 32 -136 75 -175 95 -38 20
-90 49 -115 62 -102 58 -227 126 -257 141 -28 15 -32 15 -37 1z"/>
<path d="M7268 3500 c-27 -17 -51 -30 -54 -30 -3 0 -36 -17 -72 -39 -64 -36
-117 -65 -269 -147 -38 -20 -86 -47 -108 -59 -22 -12 -69 -38 -105 -58 -36
-19 -136 -73 -223 -121 -86 -47 -162 -86 -167 -86 -6 0 -10 -4 -10 -8 0 -4
-12 -13 -27 -19 -54 -23 -138 -73 -150 -90 -10 -13 -13 -189 -13 -799 0 -430
3 -789 6 -798 5 -13 24 -6 105 37 54 29 107 57 116 62 64 36 161 89 238 131
50 26 137 74 194 106 58 32 106 58 107 58 2 0 63 33 136 74 73 40 165 90 203
111 39 21 88 49 110 61 l40 22 3 803 c1 442 -1 806 -5 810 -5 5 -29 -5 -55
-21z"/>
<path d="M2449 3033 c-35 -19 -93 -51 -129 -71 -36 -19 -96 -52 -135 -73 l-70
-38 -3 -810 c-1 -446 1 -811 4 -811 5 0 56 27 167 89 18 9 60 32 95 51 l62 33
0 638 0 638 23 25 c12 13 45 36 72 51 28 15 79 43 115 62 166 90 171 94 123
116 -16 6 -30 14 -33 17 -3 3 -23 14 -45 25 -22 11 -65 34 -95 50 -82 46 -81
46 -151 8z"/>
<path d="M5335 2999 c-71 -39 -136 -76 -143 -84 -15 -13 0 -22 213 -135 86
-45 110 -63 128 -95 9 -14 13 -200 17 -653 l5 -634 90 -49 c160 -88 222 -118
229 -112 3 4 6 365 6 803 0 705 -2 799 -15 810 -19 16 -110 67 -147 83 -16 6
-28 15 -28 19 0 4 -4 8 -10 8 -5 0 -54 25 -109 55 -55 30 -101 55 -103 55 -2
0 -61 -32 -133 -71z"/>
<path d="M2975 2772 c-16 -10 -31 -20 -33 -24 -2 -5 -8 -8 -13 -8 -14 0 -169
-90 -169 -98 0 -7 21 -19 170 -99 47 -25 90 -49 95 -53 10 -7 58 -34 230 -125
50 -26 104 -55 120 -65 17 -10 59 -33 95 -53 36 -19 110 -59 165 -89 55 -30
132 -72 170 -93 39 -20 93 -50 122 -66 29 -16 58 -29 66 -29 8 0 99 46 203
103 104 57 218 119 254 138 36 20 101 56 145 81 44 25 109 61 145 80 317 170
480 263 480 272 0 6 -26 25 -58 42 -31 17 -90 48 -129 70 l-73 39 -47 -26
c-27 -14 -73 -39 -103 -56 -69 -38 -269 -147 -335 -183 -102 -55 -187 -101
-218 -119 -145 -80 -248 -131 -267 -131 -12 0 -46 13 -74 29 -49 27 -116 63
-241 131 -33 18 -78 42 -100 53 -22 12 -42 24 -45 27 -3 3 -32 19 -65 36 -65
34 -124 66 -312 168 -66 36 -127 66 -135 65 -7 0 -26 -8 -43 -17z"/>
<path d="M2640 1661 l0 -809 73 -40 c39 -22 99 -54 132 -73 33 -18 78 -42 100
-54 22 -13 72 -39 110 -60 39 -21 91 -51 118 -66 26 -16 49 -29 51 -29 3 0
116 -61 253 -136 136 -75 280 -154 319 -175 39 -21 77 -39 83 -39 17 0 16
1604 -1 1617 -12 9 -56 34 -208 116 -153 83 -183 99 -215 117 -19 11 -65 36
-102 56 -224 121 -297 161 -373 204 -157 88 -299 164 -323 173 -16 6 -17 -48
-17 -802z"/>
<path d="M5165 2377 c-93 -51 -199 -109 -235 -129 -214 -116 -337 -184 -500
-273 -52 -28 -131 -71 -175 -95 -44 -24 -98 -53 -120 -66 l-40 -22 -3 -806
c-2 -690 0 -806 12 -806 8 0 45 17 83 38 73 41 155 87 268 147 39 21 104 57
145 80 41 23 100 55 130 71 30 17 182 99 338 184 l282 154 0 808 c0 444 -3
808 -7 808 -5 0 -84 -42 -178 -93z"/>
</g>
</svg>
