<?xml version="1.0" standalone="no"?>
<!DOCTYPE svg PUBLIC "-//W3C//DTD SVG 20010904//EN"
 "http://www.w3.org/TR/2001/REC-SVG-20010904/DTD/svg10.dtd">
<svg version="1.0" xmlns="http://www.w3.org/2000/svg"
 width="800.000000pt" height="800.000000pt" viewBox="0 0 800.000000 800.000000"
 preserveAspectRatio="xMidYMid meet">

<g transform="translate(0.000000,800.000000) scale(0.100000,-0.100000)"
fill="#000000" stroke="none">
<path d="M3835 7643 c-66 -10 -220 -54 -291 -83 -148 -59 -292 -157 -464 -317
-53 -48 -141 -128 -195 -178 -55 -49 -125 -113 -155 -141 -30 -27 -77 -71
-105 -96 -27 -25 -106 -96 -175 -159 -69 -63 -161 -145 -204 -184 -44 -38 -91
-81 -105 -95 -14 -14 -69 -64 -121 -110 -52 -47 -106 -96 -121 -110 -14 -14
-39 -36 -55 -50 -16 -14 -85 -77 -154 -140 -69 -62 -168 -152 -220 -199 -139
-126 -204 -185 -210 -191 -4 -4 -103 -94 -236 -215 -6 -5 -51 -46 -100 -90
-248 -223 -301 -280 -381 -401 -84 -129 -130 -240 -169 -409 -18 -76 -19 -148
-19 -1580 l0 -1500 27 -98 c89 -319 257 -559 510 -730 140 -94 274 -150 448
-187 94 -19 134 -20 2652 -20 2485 0 2560 1 2655 19 54 11 125 28 159 39 304
99 566 337 708 645 51 110 78 195 105 340 21 106 21 134 21 1530 0 1370 -1
1425 -20 1514 -43 203 -110 360 -214 498 -76 101 -96 121 -341 340 -49 44
-118 107 -154 141 -37 34 -91 83 -121 109 -30 27 -57 51 -60 54 -3 3 -50 47
-104 96 -55 50 -107 97 -116 105 -9 8 -57 51 -105 95 -49 44 -119 107 -155
140 -36 34 -80 74 -99 90 -19 17 -39 35 -45 41 -6 5 -63 57 -126 114 -63 57
-135 122 -159 144 -24 23 -49 46 -55 51 -126 113 -312 281 -316 285 -6 7 -102
94 -230 210 -51 47 -120 110 -153 140 -32 30 -67 61 -76 70 -10 8 -58 51 -106
95 -215 197 -372 287 -612 352 -82 22 -123 26 -253 28 -85 2 -168 1 -185 -2z
m271 -757 c67 -18 139 -57 189 -104 23 -20 90 -82 150 -136 127 -115 273 -246
289 -261 74 -69 252 -231 295 -269 31 -27 102 -92 159 -144 57 -53 113 -104
125 -114 36 -31 66 -58 421 -382 49 -44 98 -89 110 -99 11 -10 39 -35 61 -56
22 -20 90 -81 150 -136 61 -55 130 -118 155 -142 25 -23 55 -50 67 -60 24 -22
168 -150 193 -173 9 -8 63 -58 120 -110 99 -89 141 -131 158 -156 38 -55 99
-183 112 -234 8 -32 10 -451 8 -1470 l-3 -1425 -35 -70 c-38 -76 -46 -88 -103
-146 -45 -47 -96 -80 -169 -111 l-53 -23 -2495 -3 c-1757 -2 -2510 1 -2547 8
-125 26 -263 131 -325 246 -61 113 -58 37 -58 1574 0 1522 -2 1468 54 1578 15
29 54 74 102 117 43 39 105 95 138 125 33 30 65 60 72 65 75 67 190 171 238
216 34 30 83 75 111 100 27 24 64 58 81 74 17 17 49 45 70 64 61 54 133 119
205 185 36 34 103 95 149 136 47 41 114 102 150 135 36 33 108 98 159 145 52
47 120 108 150 136 31 28 112 102 181 164 69 62 155 141 191 174 56 52 178
162 239 216 9 8 59 54 111 102 156 143 162 148 216 184 126 82 284 113 409 80z"/>
</g>
</svg>
