<?xml version="1.0" standalone="no"?>
<!DOCTYPE svg PUBLIC "-//W3C//DTD SVG 20010904//EN"
 "http://www.w3.org/TR/2001/REC-SVG-20010904/DTD/svg10.dtd">
<svg version="1.0" xmlns="http://www.w3.org/2000/svg"
 width="800.000000pt" height="800.000000pt" viewBox="0 0 800.000000 800.000000"
 preserveAspectRatio="xMidYMid meet">

<g transform="translate(0.000000,800.000000) scale(0.100000,-0.100000)"
fill="#000000" stroke="none">
<path d="M3846 7389 c-107 -16 -214 -58 -485 -191 -260 -128 -558 -275 -1286
-633 -198 -98 -502 -247 -675 -332 -526 -259 -567 -280 -602 -304 -52 -36 -87
-71 -110 -109 -12 -19 -25 -37 -28 -40 -18 -13 -52 -133 -57 -195 -11 -141 38
-274 135 -371 50 -50 90 -72 396 -223 743 -367 916 -451 925 -451 5 0 11 -3
13 -7 2 -5 23 -18 48 -30 72 -34 637 -312 978 -479 454 -224 574 -281 602
-288 14 -3 54 -12 90 -20 100 -23 225 -30 325 -17 90 12 222 46 239 62 6 5 16
9 22 9 7 0 196 91 421 201 224 111 536 264 693 341 1770 871 1710 840 1772
903 204 208 178 537 -57 711 -22 16 -105 62 -185 101 -80 39 -311 153 -515
253 -777 383 -980 482 -1287 634 -175 86 -322 156 -328 156 -5 0 -10 5 -10 10
0 6 -4 10 -10 10 -5 0 -118 54 -252 119 -255 125 -357 164 -473 181 -82 11
-216 11 -299 -1z"/>
<path d="M899 4436 c-138 -49 -257 -188 -288 -334 -34 -162 14 -322 129 -434
54 -53 93 -75 424 -238 201 -99 370 -180 376 -180 5 0 10 -4 10 -10 0 -5 4
-10 10 -10 14 0 244 -114 248 -122 2 -5 9 -8 15 -8 7 0 100 -43 207 -97 180
-89 356 -175 1190 -585 463 -228 478 -234 614 -258 154 -26 408 -2 516 50 8 4
35 17 60 28 52 24 455 220 945 462 187 92 484 238 660 325 1254 617 1184 581
1250 649 218 224 165 583 -109 737 -91 51 -120 46 -301 -44 -166 -83 -734
-363 -1150 -567 -148 -73 -448 -220 -665 -327 -670 -331 -674 -333 -730 -348
-14 -3 -34 -10 -45 -15 -40 -16 -195 -40 -265 -40 -165 0 -319 47 -588 180
-89 44 -167 80 -172 80 -6 0 -10 4 -10 9 0 5 -13 12 -30 16 -16 4 -30 11 -30
16 0 5 -4 9 -10 9 -9 0 -126 57 -945 460 -176 86 -428 210 -560 274 -132 64
-249 122 -260 128 -26 15 -184 93 -305 151 -113 54 -143 61 -191 43z"/>
<path d="M851 2869 c-163 -81 -262 -264 -248 -454 5 -70 40 -178 64 -203 7 -7
13 -16 13 -20 0 -11 72 -86 110 -114 38 -28 142 -81 590 -301 457 -224 889
-437 1310 -645 1000 -493 1011 -498 1167 -521 173 -26 360 -3 518 64 51 22
332 160 1580 775 215 106 500 246 635 312 346 169 557 276 602 304 121 77 208
239 208 389 0 118 -53 246 -137 330 -63 62 -160 115 -212 115 -26 0 -94 -29
-236 -99 -187 -93 -399 -197 -1220 -601 -769 -379 -956 -470 -965 -470 -4 0
-10 -3 -12 -7 -1 -5 -23 -18 -48 -30 -147 -71 -242 -113 -256 -113 -8 0 -24
-5 -34 -10 -37 -20 -177 -40 -280 -40 -187 0 -288 28 -520 142 -91 44 -298
146 -460 226 -162 79 -468 230 -680 334 -212 104 -405 199 -430 211 -25 12
-46 25 -48 30 -2 4 -9 7 -15 7 -11 0 -100 43 -622 301 -172 86 -250 119 -276
119 -20 0 -63 -14 -98 -31z"/>
</g>
</svg>
