<?xml version="1.0" standalone="no"?>
<!DOCTYPE svg PUBLIC "-//W3C//DTD SVG 20010904//EN"
 "http://www.w3.org/TR/2001/REC-SVG-20010904/DTD/svg10.dtd">
<svg version="1.0" xmlns="http://www.w3.org/2000/svg"
 width="800.000000pt" height="800.000000pt" viewBox="0 0 800.000000 800.000000"
 preserveAspectRatio="xMidYMid meet">

<g transform="translate(0.000000,800.000000) scale(0.100000,-0.100000)"
fill="#000000" stroke="none">
<path d="M1995 7274 c-11 -3 -47 -9 -80 -15 -139 -24 -253 -54 -322 -85 -206
-89 -259 -119 -388 -216 -119 -89 -218 -184 -299 -288 -36 -47 -71 -90 -76
-97 -6 -7 -10 -15 -10 -19 0 -4 -11 -21 -23 -38 -56 -73 -146 -284 -192 -450
-46 -163 -45 -133 -45 -2225 1 -1614 3 -1993 14 -2071 48 -332 215 -660 458
-900 77 -75 243 -206 306 -240 20 -11 44 -25 52 -30 50 -32 286 -130 314 -130
9 0 24 -4 34 -10 9 -5 67 -20 127 -32 l110 -23 1734 -3 1735 -2 145 26 c80 15
151 30 156 34 6 4 33 13 60 20 112 28 374 172 488 267 75 63 766 760 807 814
25 33 50 65 55 72 36 42 104 166 158 287 49 108 91 261 107 389 14 118 14
3471 -1 3578 -18 131 -56 269 -115 413 -26 64 -86 180 -112 217 -12 17 -22 34
-22 37 0 4 -5 12 -10 19 -6 7 -31 39 -56 72 -102 135 -311 323 -459 410 -43
26 -146 75 -250 120 -46 20 -153 52 -220 65 -33 6 -78 17 -100 23 -29 8 -583
12 -2050 13 -1105 1 -2019 0 -2030 -2z m4110 -567 c121 -38 239 -94 330 -157
71 -50 217 -188 238 -226 6 -11 19 -28 29 -38 10 -11 18 -26 18 -33 0 -7 4
-13 8 -13 12 0 89 -158 112 -228 17 -55 27 -99 50 -226 6 -39 10 -553 10
-1528 l0 -1468 -422 0 c-564 0 -613 -8 -863 -132 -44 -22 -82 -43 -85 -47 -3
-3 -30 -25 -60 -47 -133 -100 -272 -271 -320 -394 -7 -19 -16 -39 -20 -45 -9
-13 -48 -134 -62 -194 -7 -28 -13 -231 -17 -516 l-6 -470 -1465 -3 c-974 -2
-1496 1 -1557 8 -163 18 -356 97 -494 200 -87 65 -135 113 -230 228 -45 54
-149 261 -149 296 0 8 -4 17 -9 20 -4 3 -11 22 -15 43 -3 21 -12 79 -20 128
-13 77 -15 359 -16 1974 0 1248 3 1907 10 1950 18 114 33 186 40 196 4 6 10
22 14 38 14 59 88 200 147 282 23 31 100 116 139 153 82 78 280 202 322 202 8
0 18 4 23 9 16 15 155 53 220 61 33 4 949 7 2035 6 l1975 -1 90 -28z m755
-4467 c0 -6 -4 -18 -9 -28 -5 -9 -21 -48 -37 -87 -27 -69 -93 -181 -141 -240
-58 -72 -685 -691 -748 -740 -107 -82 -298 -174 -333 -160 -12 4 -13 70 -9
418 4 407 5 413 29 477 29 78 43 104 77 150 35 46 109 116 141 132 14 7 27 16
30 19 11 13 128 54 170 60 78 11 830 10 830 -1z"/>
<path d="M2331 5683 c-56 -11 -131 -76 -164 -143 -33 -68 -31 -178 6 -241 27
-46 79 -99 97 -99 5 0 10 -4 10 -9 0 -29 111 -31 1715 -31 1604 0 1715 2 1715
31 0 5 5 9 10 9 18 0 70 53 97 99 35 61 39 176 8 237 -22 43 -83 114 -99 114
-5 0 -18 8 -29 18 -18 16 -113 17 -1681 18 -913 1 -1672 -1 -1685 -3z"/>
<path d="M2318 4092 c-58 -21 -119 -75 -149 -133 -19 -35 -24 -60 -23 -119 0
-87 21 -135 86 -198 80 -78 -48 -73 1783 -70 l1630 3 46 22 c56 28 100 71 130
126 32 58 33 174 2 233 -31 59 -90 112 -151 134 -52 20 -81 20 -1680 19 -1494
0 -1631 -2 -1674 -17z"/>
<path d="M2312 2508 c-47 -16 -117 -81 -144 -136 -32 -65 -32 -168 0 -232 22
-47 64 -92 117 -126 29 -18 58 -19 915 -19 l885 0 45 29 c53 33 102 95 120
149 29 91 -3 215 -72 278 -75 68 -10 64 -968 66 -587 1 -876 -2 -898 -9z"/>
</g>
</svg>
